<svg width="100%" height="100%" id="svg" viewBox="0 0 1440 600" xmlns="http://www.w3.org/2000/svg" class="transition duration-300 ease-in-out delay-150"><defs><linearGradient id="gradient" x1="3%" y1="32%" x2="97%" y2="68%"><stop offset="5%" stop-color="#94c296"></stop><stop offset="95%" stop-color="#94c296"></stop></linearGradient></defs><path d="M 0,600 C 0,600 0,200 0,200 C 167.19999999999993,225.33333333333331 334.39999999999986,250.66666666666663 509,264 C 683.6000000000001,277.33333333333337 865.6000000000001,278.6666666666667 1022,266 C 1178.3999999999999,253.33333333333331 1309.1999999999998,226.66666666666666 1440,200 C 1440,200 1440,600 1440,600 Z" stroke="none" stroke-width="0" fill="url(#gradient)" fill-opacity="0.53" class="transition-all duration-300 ease-in-out delay-150 path-0"></path><defs><linearGradient id="gradient" x1="3%" y1="32%" x2="97%" y2="68%"><stop offset="5%" stop-color="#94c296"></stop><stop offset="95%" stop-color="#94c296"></stop></linearGradient></defs><path d="M 0,600 C 0,600 0,400 0,400 C 119.46666666666664,398.79999999999995 238.93333333333328,397.59999999999997 408,383 C 577.0666666666667,368.40000000000003 795.7333333333333,340.40000000000003 976,341 C 1156.2666666666667,341.59999999999997 1298.1333333333332,370.79999999999995 1440,400 C 1440,400 1440,600 1440,600 Z" stroke="none" stroke-width="0" fill="url(#gradient)" fill-opacity="1" class="transition-all duration-300 ease-in-out delay-150 path-1"></path></svg>